<?xml version="1.0" encoding="UTF-8"?>
<svg id="_Слой_2" data-name="Слой 2" xmlns="http://www.w3.org/2000/svg" viewBox="0 0 1284.48 366.26">
  <defs>
    <style>
      .cls-1 {
        fill: #fff;
      }
    </style>
  </defs>
  <g id="_Слой_1-2" data-name="Слой 1">
    <g>
      <rect width="468.52" height="366.26"/>
      <g>
        <path class="cls-1" d="M291.39,46.96v278.63h-45.59v-166.4l-69.05,166.4h-15.86l-69.05-166.01v166.01h-45.59V46.96h45.59l76.98,184.98L245.8,46.96h45.59Z"/>
        <path class="cls-1" d="M375.64,46.96h45.92v278.63h-45.92V104.23l-44.6,32.12v-58.05l44.6-31.35Z"/>
      </g>
      <g>
        <path d="M680.25,36.4v134.4h-25.76v-80.26l-39.01,80.26h-8.96l-39.01-80.08v80.08h-25.76V36.4h25.76l43.49,89.22,43.49-89.22h25.76Z"/>
        <path d="M727.85,36.4h25.95v134.4h-25.95v-106.77l-25.2,15.49v-28l25.2-15.12Z"/>
      </g>
      <g>
        <path d="M634.89,293.19l25.2,7.28c-2.61,7.59-6.29,14.25-11.01,19.97-5.97,7.22-13.29,12.69-21.93,16.43-8.65,3.73-17.83,5.6-27.53,5.6s-19.29-1.93-28-5.79c-8.71-3.85-15.87-9.27-21.46-16.24-10.58-12.82-15.87-28.81-15.87-47.97s5.29-35.46,15.87-48.16c5.72-7.21,12.91-12.66,21.56-16.33,8.65-3.67,17.95-5.51,27.91-5.51,21.03,0,37.52,7.28,49.47,21.84,5.47,6.84,9.58,14.81,12.32,23.89l-26.13,4.48c-1.74-5.47-3.86-9.77-6.35-12.88-6.85-9.08-16.61-13.63-29.31-13.63s-22.71,4.54-29.31,13.63c-5.85,7.47-8.9,18.36-9.15,32.66.25,14.19,3.3,25.08,9.15,32.67,3.23,4.36,7.47,7.72,12.69,10.08,5.23,2.37,10.76,3.49,16.61,3.36,5.85.13,11.39-.99,16.61-3.36,5.23-2.36,9.46-5.72,12.69-10.08,2.61-3.61,4.6-7.59,5.97-11.95Z"/>
        <path d="M759.96,339.67l-6.53-20.91h-54.88l-6.35,20.91h-26.13l41.07-134.4h37.89l41.07,134.4h-26.13ZM705.82,294.87h40.32l-20.35-65.7-19.97,65.7Z"/>
        <path d="M908.35,249.7c.12,9.33-2.86,18.11-8.96,26.32-3.99,5.48-9.18,9.83-15.59,13.07-6.41,3.24-13.23,4.85-20.44,4.85h-36.03v45.73h-25.39v-134.4h61.41c4.6,0,9.15.69,13.63,2.05,9.46,2.98,16.92,8.34,22.4,16.05,5.72,7.72,8.71,16.49,8.96,26.32ZM878.49,262.02c2.86-3.98,4.23-8.09,4.11-12.32-.25-5.48-1.87-9.89-4.85-13.25-4.23-4.85-9.09-7.28-14.56-7.28h-35.84v41.07h35.84c6.1,0,11.2-2.74,15.31-8.22Z"/>
        <path d="M925.15,205.27h25.39v134.4h-25.39v-134.4Z"/>
        <path d="M1066.27,205.27v25.38h-42.37v109.01h-25.38v-109.01h-42.37v-25.38h110.13Z"/>
        <path d="M1159.23,339.67l-6.53-20.91h-54.88l-6.35,20.91h-26.13l41.07-134.4h37.89l41.07,134.4h-26.13ZM1105.09,294.87h40.32l-20.35-65.7-19.97,65.7Z"/>
        <path d="M1226.61,314.28h57.87v25.39h-83.25v-134.4h25.38v109.01Z"/>
      </g>
    </g>
  </g>
</svg>