<?xml version="1.0" encoding="UTF-8"?>
<svg id="_Слой_2" data-name="Слой 2" xmlns="http://www.w3.org/2000/svg" viewBox="0 0 1331.41 414.78">
  <defs>
    <style>
      .cls-1 {
        fill: #fff;
      }
    </style>
  </defs>
  <g id="_Слой_1-2" data-name="Слой 1">
    <g>
      <rect class="cls-1" width="549.39" height="414.78"/>
      <g>
        <path d="M346.95,48.23v293.87h-56.32v-175.5l-85.3,175.5h-19.59l-85.3-175.09v175.09h-56.32V48.23h56.32l95.1,195.09,95.1-195.09h56.32Z"/>
        <path d="M451.02,48.23h56.73v293.87h-56.73V108.64l-55.1,33.88v-61.22l55.1-33.06Z"/>
      </g>
      <g>
        <path class="cls-1" d="M727.18,46.19v134.4h-25.76v-80.26l-39.01,80.26h-8.96l-39.01-80.08v80.08h-25.76V46.19h25.76l43.49,89.22,43.49-89.22h25.76Z"/>
        <path class="cls-1" d="M774.78,46.19h25.95v134.4h-25.95v-106.77l-25.2,15.49v-28l25.2-15.12Z"/>
      </g>
      <g>
        <path class="cls-1" d="M681.82,302.99l25.2,7.28c-2.61,7.59-6.29,14.25-11.01,19.97-5.97,7.22-13.29,12.69-21.93,16.43-8.65,3.73-17.83,5.6-27.53,5.6s-19.29-1.93-28-5.79c-8.71-3.85-15.87-9.27-21.46-16.24-10.58-12.82-15.87-28.81-15.87-47.97s5.29-35.46,15.87-48.16c5.72-7.21,12.91-12.66,21.56-16.33,8.65-3.67,17.95-5.51,27.91-5.51,21.03,0,37.52,7.28,49.47,21.84,5.47,6.84,9.58,14.81,12.32,23.89l-26.13,4.48c-1.74-5.47-3.86-9.77-6.35-12.88-6.85-9.08-16.61-13.63-29.31-13.63s-22.71,4.54-29.31,13.63c-5.85,7.47-8.9,18.36-9.15,32.66.25,14.19,3.3,25.08,9.15,32.67,3.23,4.36,7.47,7.72,12.69,10.08,5.23,2.37,10.76,3.49,16.61,3.36,5.85.13,11.39-.99,16.61-3.36,5.23-2.36,9.46-5.72,12.69-10.08,2.61-3.61,4.6-7.59,5.97-11.95Z"/>
        <path class="cls-1" d="M806.89,349.47l-6.53-20.91h-54.88l-6.35,20.91h-26.13l41.07-134.4h37.89l41.07,134.4h-26.13ZM752.75,304.67h40.32l-20.35-65.7-19.97,65.7Z"/>
        <path class="cls-1" d="M955.28,259.5c.12,9.33-2.86,18.11-8.96,26.32-3.99,5.48-9.18,9.83-15.59,13.07-6.41,3.24-13.23,4.85-20.44,4.85h-36.03v45.73h-25.39v-134.4h61.41c4.6,0,9.15.69,13.63,2.05,9.46,2.98,16.92,8.34,22.4,16.05,5.72,7.72,8.71,16.49,8.96,26.32ZM925.42,271.81c2.86-3.98,4.23-8.09,4.11-12.32-.25-5.48-1.87-9.89-4.85-13.25-4.23-4.85-9.09-7.28-14.56-7.28h-35.84v41.07h35.84c6.1,0,11.2-2.74,15.31-8.22Z"/>
        <path class="cls-1" d="M972.08,215.07h25.39v134.4h-25.39v-134.4Z"/>
        <path class="cls-1" d="M1113.2,215.07v25.38h-42.37v109.01h-25.38v-109.01h-42.37v-25.38h110.13Z"/>
        <path class="cls-1" d="M1206.16,349.47l-6.53-20.91h-54.88l-6.35,20.91h-26.13l41.07-134.4h37.89l41.07,134.4h-26.13ZM1152.03,304.67h40.32l-20.35-65.7-19.97,65.7Z"/>
        <path class="cls-1" d="M1273.54,324.08h57.87v25.39h-83.25v-134.4h25.38v109.01Z"/>
      </g>
    </g>
  </g>
</svg>