<?xml version="1.0" encoding="UTF-8"?>
<svg id="_Слой_2" data-name="Слой 2" xmlns="http://www.w3.org/2000/svg" viewBox="0 0 1305.41 331.39">
  <defs>
    <style>
      .cls-1 {
        fill: #fff;
      }
    </style>
  </defs>
  <g id="_Слой_1-2" data-name="Слой 1">
    <g>
      <rect class="cls-1" width="494.75" height="331.3"/>
      <g>
        <path d="M310.43,37.3v246.22h-49.53v-147.05l-75.02,147.05h-17.23l-75.02-146.7v146.7h-49.53V37.3h49.53l83.63,163.46,83.63-163.46h49.53Z"/>
        <path d="M401.95,37.3h49.89v246.22h-49.89V87.91l-48.46,28.38v-51.3l48.46-27.7Z"/>
      </g>
      <g>
        <path class="cls-1" d="M685.21,2.08v145.93h-27.25V60.86l-41.27,87.15h-9.48l-41.27-86.95v86.95h-27.25V2.08h27.25l46.01,96.88L657.95,2.08h27.25Z"/>
        <path class="cls-1" d="M735.56,2.08h27.45v145.93h-27.45V32.08l-26.66,16.82v-30.4l26.66-16.41Z"/>
      </g>
      <g>
        <path class="cls-1" d="M641.87,277.64l25.74,7.94c-2.67,8.28-6.42,15.54-11.25,21.78-6.1,7.87-13.57,13.85-22.4,17.92-8.84,4.07-18.21,6.11-28.12,6.11s-19.7-2.11-28.6-6.31c-8.9-4.2-16.21-10.11-21.93-17.71-10.81-13.98-16.21-31.42-16.21-52.33s5.4-38.68,16.21-52.53c5.85-7.87,13.19-13.81,22.02-17.81,8.83-4,18.33-6.01,28.51-6.01,21.48,0,38.33,7.94,50.53,23.82,5.59,7.47,9.79,16.16,12.58,26.06l-26.69,4.88c-1.78-5.97-3.94-10.65-6.48-14.05-6.99-9.91-16.97-14.86-29.94-14.86s-23.2,4.95-29.94,14.86c-5.98,8.14-9.09,20.02-9.34,35.63.25,15.47,3.37,27.35,9.34,35.63,3.3,4.75,7.63,8.42,12.96,10.99,5.34,2.58,10.99,3.8,16.97,3.67,5.97.14,11.63-1.09,16.97-3.67,5.34-2.58,9.66-6.24,12.97-10.99,2.67-3.93,4.7-8.28,6.1-13.03Z"/>
        <path class="cls-1" d="M769.62,328.33l-6.67-22.8h-56.06l-6.48,22.8h-26.69l41.95-146.59h38.71l41.95,146.59h-26.69ZM714.33,279.47h41.19l-20.78-71.66-20.4,71.66Z"/>
        <path class="cls-1" d="M921.21,230.2c.12,10.18-2.93,19.75-9.15,28.71-4.07,5.97-9.38,10.72-15.92,14.25-6.55,3.53-13.51,5.29-20.88,5.29h-36.8v49.88h-25.93v-146.59h62.73c4.7,0,9.34.75,13.92,2.24,9.66,3.26,17.29,9.09,22.88,17.51,5.85,8.42,8.9,17.99,9.15,28.71ZM890.7,243.64c2.92-4.34,4.32-8.82,4.19-13.43-.26-5.97-1.91-10.79-4.96-14.46-4.32-5.3-9.28-7.94-14.87-7.94h-36.61v44.79h36.61c6.23,0,11.44-2.98,15.64-8.96Z"/>
        <path class="cls-1" d="M938.37,181.74h25.93v146.59h-25.93v-146.59Z"/>
        <path class="cls-1" d="M1082.51,181.74v27.69h-43.28v118.9h-25.93v-118.9h-43.28v-27.69h112.5Z"/>
        <path class="cls-1" d="M1177.47,328.33l-6.67-22.8h-56.06l-6.48,22.8h-26.69l41.95-146.59h38.71l41.95,146.59h-26.69ZM1122.17,279.47h41.19l-20.78-71.66-20.4,71.66Z"/>
        <path class="cls-1" d="M1246.3,300.64h59.11v27.69h-85.04v-146.59h25.93v118.9Z"/>
      </g>
    </g>
  </g>
</svg>