<svg xmlns="http://www.w3.org/2000/svg" xmlns:xlink="http://www.w3.org/1999/xlink" width="317" zoomAndPan="magnify" viewBox="0 0 237.75 67.499998" height="90" preserveAspectRatio="xMidYMid meet" version="1.2"><defs><clipPath id="bfe5ac45ce"><path d="M 0.75 8.511719 L 64.457031 8.511719 L 64.457031 59.777344 L 0.75 59.777344 Z M 0.75 8.511719 "/></clipPath></defs><g id="47a755a2a1"><g clip-rule="nonzero" clip-path="url(#bfe5ac45ce)"><path style=" stroke:none;fill-rule:nonzero;fill:#000000;fill-opacity:1;" d="M 0.75 8.511719 L 64.429688 8.511719 L 64.429688 59.777344 L 0.75 59.777344 Z M 0.75 8.511719 "/></g><g style="fill:#ffffff;fill-opacity:1;"><g transform="translate(13.417885, 47.968907)"><path style="stroke:none" d="M 12.75 -11.859375 L 21.0625 -20.90625 L 22.96875 -20.90625 L 22.96875 0 C 22.050781 0 21.140625 0 20.234375 0 C 19.328125 0 18.421875 0 17.515625 0 L 17.515625 -9.296875 L 13.078125 -4.640625 L 12.484375 -4.640625 L 8.078125 -9.296875 L 8.078125 0 C 7.160156 0 6.25 0 5.34375 0 C 4.4375 0 3.53125 0 2.625 0 L 2.625 -20.90625 L 4.59375 -20.90625 Z M 12.75 -11.859375 "/></g></g><g style="fill:#ffffff;fill-opacity:1;"><g transform="translate(39.02815, 47.968907)"><path style="stroke:none" d="M 3.75 -16.53125 L 0.921875 -16.53125 L 0.921875 -20.84375 L 8.9375 -20.84375 L 8.9375 -4.34375 L 12.09375 -4.34375 L 12.09375 0 L 0.65625 0 L 0.65625 -4.34375 L 3.75 -4.34375 Z M 3.75 -16.53125 "/></g></g><g style="fill:#000000;fill-opacity:1;"><g transform="translate(73.788425, 36.029578)"><path style="stroke:none" d="M 7.515625 -20.96875 L 12.90625 -5.765625 L 18.265625 -20.96875 L 23.9375 -20.96875 L 23.9375 0 L 19.609375 0 L 19.609375 -5.734375 L 20.03125 -15.625 L 14.375 0 L 11.40625 0 L 5.765625 -15.609375 L 6.1875 -5.734375 L 6.1875 0 L 1.875 0 L 1.875 -20.96875 Z M 7.515625 -20.96875 "/></g></g><g style="fill:#000000;fill-opacity:1;"><g transform="translate(99.619743, 36.029578)"><path style="stroke:none" d="M 11.53125 0 L 7.375 0 L 7.375 -16.046875 L 2.40625 -14.5 L 2.40625 -17.890625 L 11.09375 -21 L 11.53125 -21 Z M 11.53125 0 "/></g></g><g style="fill:#000000;fill-opacity:1;"><g transform="translate(116.538254, 36.029578)"><path style="stroke:none" d=""/></g></g><g style="fill:#000000;fill-opacity:1;"><g transform="translate(123.881605, 36.029578)"><path style="stroke:none" d="M 18.34375 -6.984375 C 18.175781 -4.722656 17.335938 -2.945312 15.828125 -1.65625 C 14.328125 -0.363281 12.347656 0.28125 9.890625 0.28125 C 7.203125 0.28125 5.085938 -0.617188 3.546875 -2.421875 C 2.003906 -4.234375 1.234375 -6.71875 1.234375 -9.875 L 1.234375 -11.15625 C 1.234375 -13.175781 1.585938 -14.953125 2.296875 -16.484375 C 3.015625 -18.023438 4.03125 -19.207031 5.34375 -20.03125 C 6.664062 -20.851562 8.203125 -21.265625 9.953125 -21.265625 C 12.367188 -21.265625 14.316406 -20.613281 15.796875 -19.3125 C 17.273438 -18.019531 18.128906 -16.203125 18.359375 -13.859375 L 14.046875 -13.859375 C 13.941406 -15.210938 13.5625 -16.191406 12.90625 -16.796875 C 12.257812 -17.410156 11.273438 -17.71875 9.953125 -17.71875 C 8.515625 -17.71875 7.4375 -17.203125 6.71875 -16.171875 C 6 -15.140625 5.632812 -13.535156 5.625 -11.359375 L 5.625 -9.78125 C 5.625 -7.507812 5.960938 -5.847656 6.640625 -4.796875 C 7.328125 -3.753906 8.410156 -3.234375 9.890625 -3.234375 C 11.222656 -3.234375 12.21875 -3.539062 12.875 -4.15625 C 13.539062 -4.769531 13.921875 -5.710938 14.015625 -6.984375 Z M 18.34375 -6.984375 "/></g></g><g style="fill:#000000;fill-opacity:1;"><g transform="translate(143.175901, 36.029578)"><path style="stroke:none" d="M 10.625 0 C 10.4375 -0.375 10.300781 -0.835938 10.21875 -1.390625 C 9.207031 -0.273438 7.894531 0.28125 6.28125 0.28125 C 4.75 0.28125 3.484375 -0.15625 2.484375 -1.03125 C 1.484375 -1.914062 0.984375 -3.03125 0.984375 -4.375 C 0.984375 -6.03125 1.59375 -7.296875 2.8125 -8.171875 C 4.039062 -9.054688 5.8125 -9.503906 8.125 -9.515625 L 10.046875 -9.515625 L 10.046875 -10.421875 C 10.046875 -11.140625 9.859375 -11.710938 9.484375 -12.140625 C 9.117188 -12.578125 8.535156 -12.796875 7.734375 -12.796875 C 7.035156 -12.796875 6.484375 -12.625 6.078125 -12.28125 C 5.679688 -11.945312 5.484375 -11.488281 5.484375 -10.90625 L 1.328125 -10.90625 C 1.328125 -11.8125 1.601562 -12.644531 2.15625 -13.40625 C 2.71875 -14.175781 3.503906 -14.78125 4.515625 -15.21875 C 5.535156 -15.65625 6.679688 -15.875 7.953125 -15.875 C 9.867188 -15.875 11.390625 -15.390625 12.515625 -14.421875 C 13.648438 -13.460938 14.21875 -12.109375 14.21875 -10.359375 L 14.21875 -3.59375 C 14.226562 -2.125 14.4375 -1.007812 14.84375 -0.25 L 14.84375 0 Z M 7.1875 -2.890625 C 7.800781 -2.890625 8.367188 -3.023438 8.890625 -3.296875 C 9.410156 -3.578125 9.796875 -3.945312 10.046875 -4.40625 L 10.046875 -7.09375 L 8.484375 -7.09375 C 6.398438 -7.09375 5.289062 -6.367188 5.15625 -4.921875 L 5.140625 -4.6875 C 5.140625 -4.164062 5.320312 -3.734375 5.6875 -3.390625 C 6.050781 -3.054688 6.550781 -2.890625 7.1875 -2.890625 Z M 7.1875 -2.890625 "/></g></g><g style="fill:#000000;fill-opacity:1;"><g transform="translate(158.985705, 36.029578)"><path style="stroke:none" d="M 15.625 -7.65625 C 15.625 -5.25 15.078125 -3.320312 13.984375 -1.875 C 12.898438 -0.4375 11.429688 0.28125 9.578125 0.28125 C 8.003906 0.28125 6.734375 -0.265625 5.765625 -1.359375 L 5.765625 6 L 1.59375 6 L 1.59375 -15.578125 L 5.453125 -15.578125 L 5.609375 -14.0625 C 6.609375 -15.269531 7.921875 -15.875 9.546875 -15.875 C 11.472656 -15.875 12.96875 -15.160156 14.03125 -13.734375 C 15.09375 -12.316406 15.625 -10.359375 15.625 -7.859375 Z M 11.46875 -7.953125 C 11.46875 -9.398438 11.207031 -10.515625 10.6875 -11.296875 C 10.175781 -12.085938 9.429688 -12.484375 8.453125 -12.484375 C 7.148438 -12.484375 6.253906 -11.984375 5.765625 -10.984375 L 5.765625 -4.609375 C 6.273438 -3.578125 7.179688 -3.0625 8.484375 -3.0625 C 10.472656 -3.0625 11.46875 -4.691406 11.46875 -7.953125 Z M 11.46875 -7.953125 "/></g></g><g style="fill:#000000;fill-opacity:1;"><g transform="translate(175.587444, 36.029578)"><path style="stroke:none" d="M 6 0 L 1.8125 0 L 1.8125 -15.578125 L 6 -15.578125 Z M 1.5625 -19.625 C 1.5625 -20.25 1.769531 -20.757812 2.1875 -21.15625 C 2.613281 -21.5625 3.1875 -21.765625 3.90625 -21.765625 C 4.613281 -21.765625 5.175781 -21.5625 5.59375 -21.15625 C 6.019531 -20.757812 6.234375 -20.25 6.234375 -19.625 C 6.234375 -18.988281 6.019531 -18.46875 5.59375 -18.0625 C 5.164062 -17.65625 4.601562 -17.453125 3.90625 -17.453125 C 3.207031 -17.453125 2.640625 -17.65625 2.203125 -18.0625 C 1.773438 -18.46875 1.5625 -18.988281 1.5625 -19.625 Z M 1.5625 -19.625 "/></g></g><g style="fill:#000000;fill-opacity:1;"><g transform="translate(183.405959, 36.029578)"><path style="stroke:none" d="M 6.578125 -19.421875 L 6.578125 -15.578125 L 9.25 -15.578125 L 9.25 -12.53125 L 6.578125 -12.53125 L 6.578125 -4.75 C 6.578125 -4.175781 6.6875 -3.765625 6.90625 -3.515625 C 7.132812 -3.265625 7.5625 -3.140625 8.1875 -3.140625 C 8.644531 -3.140625 9.050781 -3.171875 9.40625 -3.234375 L 9.40625 -0.09375 C 8.59375 0.15625 7.753906 0.28125 6.890625 0.28125 C 3.960938 0.28125 2.472656 -1.191406 2.421875 -4.140625 L 2.421875 -12.53125 L 0.140625 -12.53125 L 0.140625 -15.578125 L 2.421875 -15.578125 L 2.421875 -19.421875 Z M 6.578125 -19.421875 "/></g></g><g style="fill:#000000;fill-opacity:1;"><g transform="translate(193.369879, 36.029578)"><path style="stroke:none" d="M 10.625 0 C 10.4375 -0.375 10.300781 -0.835938 10.21875 -1.390625 C 9.207031 -0.273438 7.894531 0.28125 6.28125 0.28125 C 4.75 0.28125 3.484375 -0.15625 2.484375 -1.03125 C 1.484375 -1.914062 0.984375 -3.03125 0.984375 -4.375 C 0.984375 -6.03125 1.59375 -7.296875 2.8125 -8.171875 C 4.039062 -9.054688 5.8125 -9.503906 8.125 -9.515625 L 10.046875 -9.515625 L 10.046875 -10.421875 C 10.046875 -11.140625 9.859375 -11.710938 9.484375 -12.140625 C 9.117188 -12.578125 8.535156 -12.796875 7.734375 -12.796875 C 7.035156 -12.796875 6.484375 -12.625 6.078125 -12.28125 C 5.679688 -11.945312 5.484375 -11.488281 5.484375 -10.90625 L 1.328125 -10.90625 C 1.328125 -11.8125 1.601562 -12.644531 2.15625 -13.40625 C 2.71875 -14.175781 3.503906 -14.78125 4.515625 -15.21875 C 5.535156 -15.65625 6.679688 -15.875 7.953125 -15.875 C 9.867188 -15.875 11.390625 -15.390625 12.515625 -14.421875 C 13.648438 -13.460938 14.21875 -12.109375 14.21875 -10.359375 L 14.21875 -3.59375 C 14.226562 -2.125 14.4375 -1.007812 14.84375 -0.25 L 14.84375 0 Z M 7.1875 -2.890625 C 7.800781 -2.890625 8.367188 -3.023438 8.890625 -3.296875 C 9.410156 -3.578125 9.796875 -3.945312 10.046875 -4.40625 L 10.046875 -7.09375 L 8.484375 -7.09375 C 6.398438 -7.09375 5.289062 -6.367188 5.15625 -4.921875 L 5.140625 -4.6875 C 5.140625 -4.164062 5.320312 -3.734375 5.6875 -3.390625 C 6.050781 -3.054688 6.550781 -2.890625 7.1875 -2.890625 Z M 7.1875 -2.890625 "/></g></g><g style="fill:#000000;fill-opacity:1;"><g transform="translate(209.179683, 36.029578)"><path style="stroke:none" d="M 6 0 L 1.8125 0 L 1.8125 -22.125 L 6 -22.125 Z M 6 0 "/></g></g><g style="fill:#000000;fill-opacity:1;"><g transform="translate(73.788425, 58.092877)"><path style="stroke:none" d="M 1.3125 0 L 1.3125 -10.8125 L 7.84375 -10.8125 L 7.84375 -9.65625 L 2.625 -9.65625 L 2.625 -6 L 7.5 -6 L 7.5 -4.84375 L 2.625 -4.84375 L 2.625 -1.15625 L 7.921875 -1.15625 L 7.921875 0 Z M 1.3125 0 "/></g></g><g style="fill:#000000;fill-opacity:1;"><g transform="translate(82.685737, 58.092877)"><path style="stroke:none" d="M 2.390625 -4.875 L 2.390625 0 L 1.140625 0 L 1.140625 -8.109375 L 2.34375 -8.109375 L 2.34375 -6.84375 L 2.453125 -6.84375 C 2.640625 -7.257812 2.925781 -7.59375 3.3125 -7.84375 C 3.695312 -8.09375 4.195312 -8.21875 4.8125 -8.21875 C 5.632812 -8.21875 6.296875 -7.960938 6.796875 -7.453125 C 7.304688 -6.953125 7.5625 -6.1875 7.5625 -5.15625 L 7.5625 0 L 6.3125 0 L 6.3125 -5.078125 C 6.3125 -5.710938 6.144531 -6.207031 5.8125 -6.5625 C 5.488281 -6.914062 5.035156 -7.09375 4.453125 -7.09375 C 3.859375 -7.09375 3.363281 -6.898438 2.96875 -6.515625 C 2.582031 -6.128906 2.390625 -5.582031 2.390625 -4.875 Z M 2.390625 -4.875 "/></g></g><g style="fill:#000000;fill-opacity:1;"><g transform="translate(91.392849, 58.092877)"><path style="stroke:none" d="M 4.546875 0.171875 C 3.765625 0.171875 3.085938 0 2.515625 -0.34375 C 1.953125 -0.695312 1.519531 -1.1875 1.21875 -1.8125 C 0.914062 -2.4375 0.765625 -3.164062 0.765625 -4 C 0.765625 -4.820312 0.914062 -5.550781 1.21875 -6.1875 C 1.519531 -6.820312 1.941406 -7.316406 2.484375 -7.671875 C 3.035156 -8.035156 3.679688 -8.21875 4.421875 -8.21875 C 4.835938 -8.21875 5.25 -8.144531 5.65625 -8 C 6.070312 -7.863281 6.445312 -7.632812 6.78125 -7.3125 C 7.125 -7 7.394531 -6.582031 7.59375 -6.0625 C 7.800781 -5.550781 7.90625 -4.914062 7.90625 -4.15625 L 7.90625 -3.640625 L 2.015625 -3.640625 C 2.046875 -2.765625 2.289062 -2.097656 2.75 -1.640625 C 3.207031 -1.179688 3.804688 -0.953125 4.546875 -0.953125 C 5.035156 -0.953125 5.453125 -1.054688 5.796875 -1.265625 C 6.148438 -1.472656 6.410156 -1.789062 6.578125 -2.21875 L 7.78125 -1.875 C 7.582031 -1.269531 7.195312 -0.773438 6.625 -0.390625 C 6.0625 -0.015625 5.367188 0.171875 4.546875 0.171875 Z M 2.015625 -4.71875 L 6.640625 -4.71875 C 6.640625 -5.394531 6.4375 -5.957031 6.03125 -6.40625 C 5.632812 -6.863281 5.097656 -7.09375 4.421875 -7.09375 C 3.941406 -7.09375 3.523438 -6.984375 3.171875 -6.765625 C 2.828125 -6.546875 2.554688 -6.253906 2.359375 -5.890625 C 2.160156 -5.523438 2.046875 -5.132812 2.015625 -4.71875 Z M 2.015625 -4.71875 "/></g></g><g style="fill:#000000;fill-opacity:1;"><g transform="translate(100.057692, 58.092877)"><path style="stroke:none" d="M 1.140625 0 L 1.140625 -8.109375 L 2.34375 -8.109375 L 2.34375 -6.890625 L 2.4375 -6.890625 C 2.570312 -7.285156 2.832031 -7.609375 3.21875 -7.859375 C 3.613281 -8.109375 4.054688 -8.234375 4.546875 -8.234375 C 4.765625 -8.234375 4.957031 -8.207031 5.125 -8.15625 C 5.300781 -8.101562 5.453125 -8.03125 5.578125 -7.9375 L 5.15625 -6.890625 C 5.070312 -6.929688 4.96875 -6.960938 4.84375 -6.984375 C 4.726562 -7.015625 4.59375 -7.03125 4.4375 -7.03125 C 3.84375 -7.03125 3.351562 -6.847656 2.96875 -6.484375 C 2.582031 -6.128906 2.390625 -5.679688 2.390625 -5.140625 L 2.390625 0 Z M 1.140625 0 "/></g></g><g style="fill:#000000;fill-opacity:1;"><g transform="translate(105.763802, 58.092877)"><path style="stroke:none" d="M 4.421875 3.21875 C 3.515625 3.21875 2.796875 3.050781 2.265625 2.71875 C 1.742188 2.382812 1.351562 2.003906 1.09375 1.578125 L 2.09375 0.890625 C 2.207031 1.035156 2.347656 1.203125 2.515625 1.390625 C 2.691406 1.585938 2.929688 1.753906 3.234375 1.890625 C 3.535156 2.035156 3.929688 2.109375 4.421875 2.109375 C 5.078125 2.109375 5.613281 1.945312 6.03125 1.625 C 6.457031 1.3125 6.671875 0.816406 6.671875 0.140625 L 6.671875 -1.5 L 6.578125 -1.5 C 6.484375 -1.351562 6.351562 -1.171875 6.1875 -0.953125 C 6.019531 -0.734375 5.78125 -0.539062 5.46875 -0.375 C 5.15625 -0.207031 4.734375 -0.125 4.203125 -0.125 C 3.546875 -0.125 2.957031 -0.28125 2.4375 -0.59375 C 1.914062 -0.90625 1.503906 -1.351562 1.203125 -1.9375 C 0.910156 -2.53125 0.765625 -3.25 0.765625 -4.09375 C 0.765625 -4.925781 0.910156 -5.648438 1.203125 -6.265625 C 1.492188 -6.890625 1.898438 -7.367188 2.421875 -7.703125 C 2.941406 -8.046875 3.539062 -8.21875 4.21875 -8.21875 C 4.75 -8.21875 5.171875 -8.128906 5.484375 -7.953125 C 5.796875 -7.785156 6.035156 -7.585938 6.203125 -7.359375 C 6.367188 -7.140625 6.5 -6.960938 6.59375 -6.828125 L 6.71875 -6.828125 L 6.71875 -8.109375 L 7.921875 -8.109375 L 7.921875 0.234375 C 7.921875 0.929688 7.765625 1.5 7.453125 1.9375 C 7.140625 2.375 6.71875 2.695312 6.1875 2.90625 C 5.65625 3.113281 5.066406 3.21875 4.421875 3.21875 Z M 4.375 -1.25 C 5.125 -1.25 5.695312 -1.5 6.09375 -2 C 6.5 -2.507812 6.703125 -3.21875 6.703125 -4.125 C 6.703125 -5 6.503906 -5.710938 6.109375 -6.265625 C 5.710938 -6.816406 5.132812 -7.09375 4.375 -7.09375 C 3.84375 -7.09375 3.398438 -6.957031 3.046875 -6.6875 C 2.703125 -6.425781 2.441406 -6.066406 2.265625 -5.609375 C 2.085938 -5.160156 2 -4.664062 2 -4.125 C 2 -3.28125 2.195312 -2.585938 2.59375 -2.046875 C 3 -1.515625 3.59375 -1.25 4.375 -1.25 Z M 4.375 -1.25 "/></g></g><g style="fill:#000000;fill-opacity:1;"><g transform="translate(114.830185, 58.092877)"><path style="stroke:none" d="M 1.90625 3.140625 C 1.6875 3.140625 1.492188 3.125 1.328125 3.09375 C 1.171875 3.0625 1.0625 3.03125 1 3 L 1.3125 1.90625 C 1.757812 2.019531 2.132812 2.015625 2.4375 1.890625 C 2.75 1.773438 3.015625 1.410156 3.234375 0.796875 L 3.5 0.046875 L 0.5 -8.109375 L 1.859375 -8.109375 L 4.09375 -1.640625 L 4.1875 -1.640625 L 6.421875 -8.109375 L 7.78125 -8.109375 L 4.296875 1.3125 C 3.835938 2.53125 3.039062 3.140625 1.90625 3.140625 Z M 1.90625 3.140625 "/></g></g><g style="fill:#000000;fill-opacity:1;"><g transform="translate(123.114616, 58.092877)"><path style="stroke:none" d=""/></g></g><g style="fill:#000000;fill-opacity:1;"><g transform="translate(127.299097, 58.092877)"><path style="stroke:none" d="M 4.75 -8.109375 L 4.75 -7.0625 L 2.9375 -7.0625 L 2.9375 0 L 1.6875 0 L 1.6875 -7.0625 L 0.375 -7.0625 L 0.375 -8.109375 L 1.6875 -8.109375 L 1.6875 -9.234375 C 1.6875 -9.703125 1.796875 -10.085938 2.015625 -10.390625 C 2.234375 -10.703125 2.515625 -10.9375 2.859375 -11.09375 C 3.210938 -11.25 3.582031 -11.328125 3.96875 -11.328125 C 4.28125 -11.328125 4.53125 -11.300781 4.71875 -11.25 C 4.914062 -11.195312 5.0625 -11.148438 5.15625 -11.109375 L 4.796875 -10.03125 C 4.734375 -10.050781 4.644531 -10.078125 4.53125 -10.109375 C 4.425781 -10.140625 4.28125 -10.15625 4.09375 -10.15625 C 3.6875 -10.15625 3.390625 -10.050781 3.203125 -9.84375 C 3.023438 -9.644531 2.9375 -9.34375 2.9375 -8.9375 L 2.9375 -8.109375 Z M 4.75 -8.109375 "/></g></g><g style="fill:#000000;fill-opacity:1;"><g transform="translate(132.667068, 58.092877)"><path style="stroke:none" d="M 4.4375 0.171875 C 3.707031 0.171875 3.066406 0 2.515625 -0.34375 C 1.960938 -0.695312 1.53125 -1.1875 1.21875 -1.8125 C 0.914062 -2.4375 0.765625 -3.171875 0.765625 -4.015625 C 0.765625 -4.859375 0.914062 -5.59375 1.21875 -6.21875 C 1.53125 -6.851562 1.960938 -7.34375 2.515625 -7.6875 C 3.066406 -8.039062 3.707031 -8.21875 4.4375 -8.21875 C 5.164062 -8.21875 5.804688 -8.039062 6.359375 -7.6875 C 6.910156 -7.34375 7.335938 -6.851562 7.640625 -6.21875 C 7.953125 -5.59375 8.109375 -4.859375 8.109375 -4.015625 C 8.109375 -3.171875 7.953125 -2.4375 7.640625 -1.8125 C 7.335938 -1.1875 6.910156 -0.695312 6.359375 -0.34375 C 5.804688 0 5.164062 0.171875 4.4375 0.171875 Z M 4.4375 -0.953125 C 4.988281 -0.953125 5.441406 -1.09375 5.796875 -1.375 C 6.160156 -1.664062 6.425781 -2.039062 6.59375 -2.5 C 6.769531 -2.96875 6.859375 -3.472656 6.859375 -4.015625 C 6.859375 -4.554688 6.769531 -5.0625 6.59375 -5.53125 C 6.425781 -6 6.160156 -6.375 5.796875 -6.65625 C 5.441406 -6.945312 4.988281 -7.09375 4.4375 -7.09375 C 3.882812 -7.09375 3.425781 -6.945312 3.0625 -6.65625 C 2.707031 -6.375 2.441406 -6 2.265625 -5.53125 C 2.085938 -5.0625 2 -4.554688 2 -4.015625 C 2 -3.472656 2.085938 -2.96875 2.265625 -2.5 C 2.441406 -2.039062 2.707031 -1.664062 3.0625 -1.375 C 3.425781 -1.09375 3.882812 -0.953125 4.4375 -0.953125 Z M 4.4375 -0.953125 "/></g></g><g style="fill:#000000;fill-opacity:1;"><g transform="translate(141.54325, 58.092877)"><path style="stroke:none" d="M 1.140625 0 L 1.140625 -8.109375 L 2.34375 -8.109375 L 2.34375 -6.890625 L 2.4375 -6.890625 C 2.570312 -7.285156 2.832031 -7.609375 3.21875 -7.859375 C 3.613281 -8.109375 4.054688 -8.234375 4.546875 -8.234375 C 4.765625 -8.234375 4.957031 -8.207031 5.125 -8.15625 C 5.300781 -8.101562 5.453125 -8.03125 5.578125 -7.9375 L 5.15625 -6.890625 C 5.070312 -6.929688 4.96875 -6.960938 4.84375 -6.984375 C 4.726562 -7.015625 4.59375 -7.03125 4.4375 -7.03125 C 3.84375 -7.03125 3.351562 -6.847656 2.96875 -6.484375 C 2.582031 -6.128906 2.390625 -5.679688 2.390625 -5.140625 L 2.390625 0 Z M 1.140625 0 "/></g></g><g style="fill:#000000;fill-opacity:1;"><g transform="translate(147.249361, 58.092877)"><path style="stroke:none" d=""/></g></g><g style="fill:#000000;fill-opacity:1;"><g transform="translate(151.433842, 58.092877)"><path style="stroke:none" d="M 4.671875 -8.109375 L 4.671875 -7.0625 L 2.9375 -7.0625 L 2.9375 -2.328125 C 2.9375 -1.972656 2.988281 -1.707031 3.09375 -1.53125 C 3.195312 -1.351562 3.328125 -1.234375 3.484375 -1.171875 C 3.648438 -1.117188 3.828125 -1.09375 4.015625 -1.09375 C 4.148438 -1.09375 4.257812 -1.097656 4.34375 -1.109375 C 4.4375 -1.128906 4.507812 -1.144531 4.5625 -1.15625 L 4.8125 -0.046875 C 4.726562 -0.015625 4.609375 0.015625 4.453125 0.046875 C 4.304688 0.0859375 4.117188 0.109375 3.890625 0.109375 C 3.535156 0.109375 3.1875 0.0351562 2.84375 -0.109375 C 2.507812 -0.265625 2.234375 -0.5 2.015625 -0.8125 C 1.796875 -1.125 1.6875 -1.515625 1.6875 -1.984375 L 1.6875 -7.0625 L 0.46875 -7.0625 L 0.46875 -8.109375 L 1.6875 -8.109375 L 1.6875 -10.0625 L 2.9375 -10.0625 L 2.9375 -8.109375 Z M 4.671875 -8.109375 "/></g></g><g style="fill:#000000;fill-opacity:1;"><g transform="translate(156.844083, 58.092877)"><path style="stroke:none" d="M 2.390625 -4.875 L 2.390625 0 L 1.140625 0 L 1.140625 -10.8125 L 2.390625 -10.8125 L 2.390625 -6.84375 L 2.5 -6.84375 C 2.6875 -7.257812 2.96875 -7.59375 3.34375 -7.84375 C 3.726562 -8.09375 4.238281 -8.21875 4.875 -8.21875 C 5.707031 -8.21875 6.378906 -7.96875 6.890625 -7.46875 C 7.398438 -6.96875 7.65625 -6.195312 7.65625 -5.15625 L 7.65625 0 L 6.40625 0 L 6.40625 -5.078125 C 6.40625 -5.710938 6.238281 -6.207031 5.90625 -6.5625 C 5.570312 -6.914062 5.109375 -7.09375 4.515625 -7.09375 C 3.898438 -7.09375 3.390625 -6.898438 2.984375 -6.515625 C 2.585938 -6.128906 2.390625 -5.582031 2.390625 -4.875 Z M 2.390625 -4.875 "/></g></g><g style="fill:#000000;fill-opacity:1;"><g transform="translate(165.635724, 58.092877)"><path style="stroke:none" d="M 4.546875 0.171875 C 3.765625 0.171875 3.085938 0 2.515625 -0.34375 C 1.953125 -0.695312 1.519531 -1.1875 1.21875 -1.8125 C 0.914062 -2.4375 0.765625 -3.164062 0.765625 -4 C 0.765625 -4.820312 0.914062 -5.550781 1.21875 -6.1875 C 1.519531 -6.820312 1.941406 -7.316406 2.484375 -7.671875 C 3.035156 -8.035156 3.679688 -8.21875 4.421875 -8.21875 C 4.835938 -8.21875 5.25 -8.144531 5.65625 -8 C 6.070312 -7.863281 6.445312 -7.632812 6.78125 -7.3125 C 7.125 -7 7.394531 -6.582031 7.59375 -6.0625 C 7.800781 -5.550781 7.90625 -4.914062 7.90625 -4.15625 L 7.90625 -3.640625 L 2.015625 -3.640625 C 2.046875 -2.765625 2.289062 -2.097656 2.75 -1.640625 C 3.207031 -1.179688 3.804688 -0.953125 4.546875 -0.953125 C 5.035156 -0.953125 5.453125 -1.054688 5.796875 -1.265625 C 6.148438 -1.472656 6.410156 -1.789062 6.578125 -2.21875 L 7.78125 -1.875 C 7.582031 -1.269531 7.195312 -0.773438 6.625 -0.390625 C 6.0625 -0.015625 5.367188 0.171875 4.546875 0.171875 Z M 2.015625 -4.71875 L 6.640625 -4.71875 C 6.640625 -5.394531 6.4375 -5.957031 6.03125 -6.40625 C 5.632812 -6.863281 5.097656 -7.09375 4.421875 -7.09375 C 3.941406 -7.09375 3.523438 -6.984375 3.171875 -6.765625 C 2.828125 -6.546875 2.554688 -6.253906 2.359375 -5.890625 C 2.160156 -5.523438 2.046875 -5.132812 2.015625 -4.71875 Z M 2.015625 -4.71875 "/></g></g><g style="fill:#000000;fill-opacity:1;"><g transform="translate(174.300567, 58.092877)"><path style="stroke:none" d=""/></g></g><g style="fill:#000000;fill-opacity:1;"><g transform="translate(178.485047, 58.092877)"><path style="stroke:none" d="M 4.75 -8.109375 L 4.75 -7.0625 L 2.9375 -7.0625 L 2.9375 0 L 1.6875 0 L 1.6875 -7.0625 L 0.375 -7.0625 L 0.375 -8.109375 L 1.6875 -8.109375 L 1.6875 -9.234375 C 1.6875 -9.703125 1.796875 -10.085938 2.015625 -10.390625 C 2.234375 -10.703125 2.515625 -10.9375 2.859375 -11.09375 C 3.210938 -11.25 3.582031 -11.328125 3.96875 -11.328125 C 4.28125 -11.328125 4.53125 -11.300781 4.71875 -11.25 C 4.914062 -11.195312 5.0625 -11.148438 5.15625 -11.109375 L 4.796875 -10.03125 C 4.734375 -10.050781 4.644531 -10.078125 4.53125 -10.109375 C 4.425781 -10.140625 4.28125 -10.15625 4.09375 -10.15625 C 3.6875 -10.15625 3.390625 -10.050781 3.203125 -9.84375 C 3.023438 -9.644531 2.9375 -9.34375 2.9375 -8.9375 L 2.9375 -8.109375 Z M 4.75 -8.109375 "/></g></g><g style="fill:#000000;fill-opacity:1;"><g transform="translate(183.853018, 58.092877)"><path style="stroke:none" d="M 6.25 -3.3125 L 6.25 -8.109375 L 7.5 -8.109375 L 7.5 0 L 6.25 0 L 6.25 -1.375 L 6.171875 -1.375 C 5.984375 -0.957031 5.6875 -0.601562 5.28125 -0.3125 C 4.882812 -0.03125 4.378906 0.109375 3.765625 0.109375 C 3.003906 0.109375 2.375 -0.140625 1.875 -0.640625 C 1.382812 -1.148438 1.140625 -1.921875 1.140625 -2.953125 L 1.140625 -8.109375 L 2.390625 -8.109375 L 2.390625 -3.046875 C 2.390625 -2.453125 2.554688 -1.976562 2.890625 -1.625 C 3.222656 -1.269531 3.644531 -1.09375 4.15625 -1.09375 C 4.46875 -1.09375 4.785156 -1.171875 5.109375 -1.328125 C 5.429688 -1.492188 5.703125 -1.738281 5.921875 -2.0625 C 6.140625 -2.394531 6.25 -2.8125 6.25 -3.3125 Z M 6.25 -3.3125 "/></g></g><g style="fill:#000000;fill-opacity:1;"><g transform="translate(192.496719, 58.092877)"><path style="stroke:none" d="M 4.671875 -8.109375 L 4.671875 -7.0625 L 2.9375 -7.0625 L 2.9375 -2.328125 C 2.9375 -1.972656 2.988281 -1.707031 3.09375 -1.53125 C 3.195312 -1.351562 3.328125 -1.234375 3.484375 -1.171875 C 3.648438 -1.117188 3.828125 -1.09375 4.015625 -1.09375 C 4.148438 -1.09375 4.257812 -1.097656 4.34375 -1.109375 C 4.4375 -1.128906 4.507812 -1.144531 4.5625 -1.15625 L 4.8125 -0.046875 C 4.726562 -0.015625 4.609375 0.015625 4.453125 0.046875 C 4.304688 0.0859375 4.117188 0.109375 3.890625 0.109375 C 3.535156 0.109375 3.1875 0.0351562 2.84375 -0.109375 C 2.507812 -0.265625 2.234375 -0.5 2.015625 -0.8125 C 1.796875 -1.125 1.6875 -1.515625 1.6875 -1.984375 L 1.6875 -7.0625 L 0.46875 -7.0625 L 0.46875 -8.109375 L 1.6875 -8.109375 L 1.6875 -10.0625 L 2.9375 -10.0625 L 2.9375 -8.109375 Z M 4.671875 -8.109375 "/></g></g><g style="fill:#000000;fill-opacity:1;"><g transform="translate(197.90696, 58.092877)"><path style="stroke:none" d="M 6.25 -3.3125 L 6.25 -8.109375 L 7.5 -8.109375 L 7.5 0 L 6.25 0 L 6.25 -1.375 L 6.171875 -1.375 C 5.984375 -0.957031 5.6875 -0.601562 5.28125 -0.3125 C 4.882812 -0.03125 4.378906 0.109375 3.765625 0.109375 C 3.003906 0.109375 2.375 -0.140625 1.875 -0.640625 C 1.382812 -1.148438 1.140625 -1.921875 1.140625 -2.953125 L 1.140625 -8.109375 L 2.390625 -8.109375 L 2.390625 -3.046875 C 2.390625 -2.453125 2.554688 -1.976562 2.890625 -1.625 C 3.222656 -1.269531 3.644531 -1.09375 4.15625 -1.09375 C 4.46875 -1.09375 4.785156 -1.171875 5.109375 -1.328125 C 5.429688 -1.492188 5.703125 -1.738281 5.921875 -2.0625 C 6.140625 -2.394531 6.25 -2.8125 6.25 -3.3125 Z M 6.25 -3.3125 "/></g></g><g style="fill:#000000;fill-opacity:1;"><g transform="translate(206.550662, 58.092877)"><path style="stroke:none" d="M 1.140625 0 L 1.140625 -8.109375 L 2.34375 -8.109375 L 2.34375 -6.890625 L 2.4375 -6.890625 C 2.570312 -7.285156 2.832031 -7.609375 3.21875 -7.859375 C 3.613281 -8.109375 4.054688 -8.234375 4.546875 -8.234375 C 4.765625 -8.234375 4.957031 -8.207031 5.125 -8.15625 C 5.300781 -8.101562 5.453125 -8.03125 5.578125 -7.9375 L 5.15625 -6.890625 C 5.070312 -6.929688 4.96875 -6.960938 4.84375 -6.984375 C 4.726562 -7.015625 4.59375 -7.03125 4.4375 -7.03125 C 3.84375 -7.03125 3.351562 -6.847656 2.96875 -6.484375 C 2.582031 -6.128906 2.390625 -5.679688 2.390625 -5.140625 L 2.390625 0 Z M 1.140625 0 "/></g></g><g style="fill:#000000;fill-opacity:1;"><g transform="translate(212.256773, 58.092877)"><path style="stroke:none" d="M 4.546875 0.171875 C 3.765625 0.171875 3.085938 0 2.515625 -0.34375 C 1.953125 -0.695312 1.519531 -1.1875 1.21875 -1.8125 C 0.914062 -2.4375 0.765625 -3.164062 0.765625 -4 C 0.765625 -4.820312 0.914062 -5.550781 1.21875 -6.1875 C 1.519531 -6.820312 1.941406 -7.316406 2.484375 -7.671875 C 3.035156 -8.035156 3.679688 -8.21875 4.421875 -8.21875 C 4.835938 -8.21875 5.25 -8.144531 5.65625 -8 C 6.070312 -7.863281 6.445312 -7.632812 6.78125 -7.3125 C 7.125 -7 7.394531 -6.582031 7.59375 -6.0625 C 7.800781 -5.550781 7.90625 -4.914062 7.90625 -4.15625 L 7.90625 -3.640625 L 2.015625 -3.640625 C 2.046875 -2.765625 2.289062 -2.097656 2.75 -1.640625 C 3.207031 -1.179688 3.804688 -0.953125 4.546875 -0.953125 C 5.035156 -0.953125 5.453125 -1.054688 5.796875 -1.265625 C 6.148438 -1.472656 6.410156 -1.789062 6.578125 -2.21875 L 7.78125 -1.875 C 7.582031 -1.269531 7.195312 -0.773438 6.625 -0.390625 C 6.0625 -0.015625 5.367188 0.171875 4.546875 0.171875 Z M 2.015625 -4.71875 L 6.640625 -4.71875 C 6.640625 -5.394531 6.4375 -5.957031 6.03125 -6.40625 C 5.632812 -6.863281 5.097656 -7.09375 4.421875 -7.09375 C 3.941406 -7.09375 3.523438 -6.984375 3.171875 -6.765625 C 2.828125 -6.546875 2.554688 -6.253906 2.359375 -5.890625 C 2.160156 -5.523438 2.046875 -5.132812 2.015625 -4.71875 Z M 2.015625 -4.71875 "/></g></g></g></svg>